# xmcd
#
# Track frame offsets:
#	150
#	18649
#	41569
#	66099
#	86628
#	116893
#	131713
#	149216
#	163045
#	179769
#	205746
#	221470
#
# Disc length: 3241
#
# Revision: 2
# Processed by: cddbd v1.5.1PL0 Copyright (c) Steve Scherf et al.
# Submitted via: audiograbber 1.82.01
# Normalized: r1:DSETVAR1
#
DISCID=bf0ca70c
DTITLE=Various Artist - Disco Hits [CD7]
DYEAR=1970
DGENRE=Disco
TTITLE0=Abba - Take A Chance On Me
TTITLE1=BeeGees - Tragedy
TTITLE2=Diana Ross - I'm Coming Out
TTITLE3=Donna Summer - She Works Hard For The Money
TTITLE4=Earth Wind and Fire - September (Uptempo Mix)
TTITLE5=Gloria Gaynor - I Will Survive
TTITLE6=KC and The Sunshine Band - Please Don't Go
TTITLE7=Kool and The Gang - Jungle Boogie
TTITLE8=Michael Jackson - Rock With You
TTITLE9=Peaches and Herb - Reunited
TTITLE10=Sylvers - Boogie Forever
TTITLE11=Village People - YMCA
EXTD=
EXTT0=
EXTT1=
EXTT2=
EXTT3=
EXTT4=
EXTT5=
EXTT6=
EXTT7=
EXTT8=
EXTT9=
EXTT10=
EXTT11=
PLAYORDER=
